# xmcd
#
# Track frame offsets:
#	150
#	12748
#	20887
#	28873
#	41264
#	57108
#	72666
#	83494
#	92511
#	110262
#	121655
#	128960
#	142004
#	151133
#	160060
#	169788
#	189986
#	198258
#	217042
#	227466
#	239344
#
# Disc length: 3382 seconds
#
# Revision: 1
# Processed by: cddbd v1.5.1PL0 Copyright (c) Steve Scherf et al.
# Submitted via: CDex 1.50Beta5
#
DISCID=160d3415
DTITLE=KEYBOARD - 奇跡の中で…
DYEAR=1900
DGENRE=Unclassifiable
TTITLE0=奇跡の中で… -月宮 あゆ-
TTITLE1=奇跡の中で… -月宮 あゆ-
TTITLE2=奇跡の中で… -月宮 あゆ-
TTITLE3=Precious Memory -川澄 舞-
TTITLE4=Precious Memory -川澄 舞-
TTITLE5=Precious Memory -川澄 舞-
TTITLE6=Delightful Surprise -美坂 栞-
TTITLE7=Delightful Surprise -美坂 栞-
TTITLE8=Delightful Surprise -美坂 栞-
TTITLE9=Stirring Fox -沢渡 真琴-
TTITLE10=Stirring Fox -沢渡 真琴-
TTITLE11=Stirring Fox -沢渡 真琴-
TTITLE12=Silver Snow -水瀬 名雪-
TTITLE13=Silver Snow -水瀬 名雪-
TTITLE14=Silver Snow -水瀬 名雪-
TTITLE15=Silver Snow -水瀬 名雪-
TTITLE16=朝影
TTITLE17=Last Regrets
TTITLE18=夢の跡
TTITLE19=PureSnows
TTITLE20=鳥の詩
EXTD=
EXTT0=
EXTT1=
EXTT2=
EXTT3=
EXTT4=
EXTT5=
EXTT6=
EXTT7=
EXTT8=
EXTT9=
EXTT10=
EXTT11=
EXTT12=
EXTT13=
EXTT14=
EXTT15=
EXTT16=
EXTT17=
EXTT18=
EXTT19=
EXTT20=
PLAYORDER=
